HIERARCHY
ROOT SpineBase
{
  OFFSET 0.000000 0.000000 0.000000
  CHANNELS 6 Xposition Yposition Zposition Zrotation Xrotation Yrotation
  JOINT SpineMid
  {
    OFFSET 0.000000 33.963264 0.000000
    CHANNELS 3 Zrotation Xrotation Yrotation
    JOINT SpineShoulder
    {
      OFFSET -0.257674 25.076354 -0.975071
      CHANNELS 3 Zrotation Xrotation Yrotation
      JOINT Neck
      {
        OFFSET -0.184796 8.267822 -0.722489
        CHANNELS 3 Zrotation Xrotation Yrotation
        JOINT Head
        {
          OFFSET 4.179688 10.666104 4.182832
          CHANNELS 3 Zrotation Xrotation Yrotation
          End Site
          {
            OFFSET 0 0 0
          }
        }
      }
      JOINT ShoulderLeft
      {
        OFFSET -4.564503 -5.332961 -7.647342
        CHANNELS 3 Zrotation Xrotation Yrotation
        JOINT ElbowLeft
        {
          OFFSET 14.978100 -18.198601 -10.380490
          CHANNELS 3 Zrotation Xrotation Yrotation
          JOINT WristLeft
          {
            OFFSET 5.328587 -24.326334 2.175045
            CHANNELS 3 Zrotation Xrotation Yrotation
            JOINT HandLeft
            {
              OFFSET 0.201625 -7.967941 2.602266
              CHANNELS 3 Zrotation Xrotation Yrotation
              JOINT HandTipLeft
              {
                OFFSET 2.724218 -7.650772 -1.196821
                CHANNELS 3 Zrotation Xrotation Yrotation
                End Site
                {
                  OFFSET 0 0 0
                }
              }
              JOINT ThumbLeft
              {
                OFFSET 2.519718 0.295298 -2.275920
                CHANNELS 3 Zrotation Xrotation Yrotation
                End Site
                {
                  OFFSET 0 0 0
                }
              }
            }
          }
        }
      }
      JOINT ShoulderRight
      {
        OFFSET 8.108616 -7.405429 -14.806236
        CHANNELS 3 Zrotation Xrotation Yrotation
        JOINT ElbowRight
        {
          OFFSET 4.196126 -27.713858 -0.739562
          CHANNELS 3 Zrotation Xrotation Yrotation
          JOINT WristRight
          {
            OFFSET 5.231087 -20.569756 2.372375
            CHANNELS 3 Zrotation Xrotation Yrotation
            JOINT HandRight
            {
              OFFSET -0.315888 -7.516707 0.777010
              CHANNELS 3 Zrotation Xrotation Yrotation
              JOINT HandTipRight
              {
                OFFSET 0.886549 -8.410533 0.084939
                CHANNELS 3 Zrotation Xrotation Yrotation
                End Site
                {
                  OFFSET 0 0 0
                }
              }
              JOINT ThumbRight
              {
                OFFSET -4.213841 0.699598 -2.977335
                CHANNELS 3 Zrotation Xrotation Yrotation
                End Site
                {
                  OFFSET 0 0 0
                }
              }
            }
          }
        }
      }
    }
  }
  JOINT HipLeft
  {
    OFFSET -6.403352 0.761704 -6.447653
    CHANNELS 3 Zrotation Xrotation Yrotation
    JOINT KneeLeft
    {
      OFFSET -0.114607 -38.789430 8.540010
      CHANNELS 3 Zrotation Xrotation Yrotation
      JOINT AnkleLeft
      {
        OFFSET -0.708016 -33.465490 0.887830
        CHANNELS 3 Zrotation Xrotation Yrotation
        JOINT FootLeft
        {
          OFFSET -6.559981 -2.691665 -14.158302
          CHANNELS 3 Zrotation Xrotation Yrotation
          End Site
          {
            OFFSET 0 0 0
          }
        }
      }
    }
  }
  JOINT HipRight
  {
    OFFSET 4.889770 1.428658 -0.953476
    CHANNELS 3 Zrotation Xrotation Yrotation
    JOINT KneeRight
    {
      OFFSET 2.546281 -34.498083 -12.191972
      CHANNELS 3 Zrotation Xrotation Yrotation
      JOINT AnkleRight
      {
        OFFSET 0.620856 -37.574199 -1.833983
        CHANNELS 3 Zrotation Xrotation Yrotation
        JOINT FootRight
        {
          OFFSET -5.844191 -3.048512 -12.634097
          CHANNELS 3 Zrotation Xrotation Yrotation
          End Site
          {
            OFFSET 0 0 0
          }
        }
      }
    }
  }
}
MOTION
Frames: 8
Frame Time: 0.033333
64.394083 76.679627 286.428343 -0.000000 0.000000 -25.943219 0.000000 -0.000000 25.943219 -0.000000 0.000000 0.000000 -0.000000 0.000000 0.000000 0.000000 0.000000 0.000000 -0.000000 0.000000 0.000000 -0.000000 0.000000 0.000000 -0.000000 0.000000 0.000000 -0.000000 0.000000 0.000000 0.000000 0.000000 0.000000 0.000000 0.000000 0.000000 -0.000000 0.000000 0.000000 -0.000000 0.000000 0.000000 -0.000000 0.000000 0.000000 -0.000000 0.000000 0.000000 0.000000 0.000000 0.000000 0.000000 0.000000 0.000000 0.000000 -0.000000 25.943219 -0.000000 0.000000 0.000000 -0.000000 0.000000 0.000000 0.000000 0.000000 0.000000 0.000000 -0.000000 25.943219 -0.000000 0.000000 0.000000 -0.000000 0.000000 0.000000 0.000000 0.000000 0.000000
64.412547 76.681172 286.424468 -0.009104 -0.058124 -25.779988 -0.017082 0.056298 25.779992 -0.000000 0.000000 0.000000 -0.000000 0.000000 0.000000 0.000000 0.000000 0.000000 -0.000000 0.000000 0.000000 -0.000000 0.000000 0.000000 0.686181 1.993443 0.264074 -0.695779 -1.990114 -0.288097 0.000000 0.000000 0.000000 0.000000 0.000000 0.000000 -0.000000 0.000000 0.000000 -0.000000 0.000000 0.000000 0.974747 -1.181215 0.160340 0.142081 1.730677 -0.099449 0.000000 0.000000 0.000000 0.000000 0.000000 0.000000 -0.017082 0.056298 25.779992 -0.000000 0.000000 0.000000 1.215336 -2.300604 -0.876063 0.000000 0.000000 0.000000 -0.017082 0.056298 25.779992 -0.000000 0.000000 0.000000 -0.000000 0.000000 0.000000 0.000000 0.000000 0.000000
64.430635 76.683260 286.417425 -0.022457 -0.108993 -25.620261 -0.026880 0.107987 25.620265 -0.000000 0.000000 0.000000 0.539334 -0.769569 0.094109 0.000000 0.000000 0.000000 -0.662850 -0.619654 -0.136564 1.919692 0.805231 0.265651 0.011092 3.380663 0.317178 -0.599755 -2.941245 -0.395741 0.000000 0.000000 0.000000 0.000000 0.000000 0.000000 0.224056 0.870501 0.124061 -0.225966 -0.870007 -0.127479 1.720327 -2.266170 0.306687 0.359925 3.414247 -0.199601 0.000000 0.000000 0.000000 0.000000 0.000000 0.000000 -0.026880 0.107987 25.620265 -0.000000 0.000000 0.000000 2.344004 -4.510866 -1.668383 0.000000 0.000000 0.000000 -0.026880 0.107987 25.620265 -0.000000 0.000000 0.000000 -0.000000 0.000000 0.000000 0.000000 0.000000 0.000000
64.448349 76.685889 286.407214 -0.040066 -0.152612 -25.464157 -0.029441 0.155012 25.464144 -0.000000 0.000000 0.000000 0.820644 -1.053970 0.099383 0.000000 0.000000 0.000000 -0.892961 -0.846053 -0.195661 2.523156 1.099794 0.354062 0.104729 4.441140 0.422901 -0.836030 -3.931907 -0.571694 0.000000 0.000000 0.000000 0.000000 0.000000 0.000000 0.299428 1.215520 0.172763 -0.532246 -0.238324 0.039595 2.456773 -4.242432 0.249261 0.648489 5.054490 -0.294044 0.000000 0.000000 0.000000 0.000000 0.000000 0.000000 -0.029441 0.155012 25.464144 -0.000000 0.000000 0.000000 3.297048 -6.431092 -2.320454 0.000000 0.000000 0.000000 -0.029441 0.155012 25.464144 -0.000000 0.000000 0.000000 -0.000000 0.000000 0.000000 0.000000 0.000000 0.000000
64.465687 76.689060 286.393835 -0.061935 -0.188983 -25.311791 -0.024809 0.197320 25.311731 -0.000000 0.000000 0.000000 1.109611 -1.272006 0.076256 0.000000 0.000000 0.000000 -1.050453 -1.012506 -0.246539 2.897289 1.317919 0.419548 0.240244 5.062811 0.502030 -1.025441 -4.590846 -0.731507 0.000000 0.000000 0.000000 0.000000 0.000000 0.000000 0.350490 1.499990 0.213010 -0.499534 -0.275441 0.069841 2.655173 -5.395726 0.287434 1.002669 6.655824 -0.376172 0.000000 0.000000 0.000000 0.000000 0.000000 0.000000 -0.493900 -0.465776 25.156152 1.549581 0.085150 0.177506 3.136291 -7.531299 -2.830833 0.000000 0.000000 0.000000 -0.024809 0.197320 25.311731 -0.000000 0.000000 0.000000 -0.000000 0.000000 0.000000 0.000000 0.000000 0.000000
64.482650 76.692772 286.377288 -0.088073 -0.218108 -25.163268 -0.013024 0.234858 25.163128 -0.000000 0.000000 0.000000 1.406294 -1.424018 0.024244 0.000000 0.000000 0.000000 -1.133404 -1.117281 -0.288074 3.046228 1.457873 0.465170 0.410016 5.238132 0.559055 -1.165869 -4.912852 -0.873981 0.000000 0.000000 0.000000 0.000000 0.000000 0.000000 0.377337 1.723730 0.245041 -0.361040 -0.292728 0.109976 2.543937 -6.421013 0.285355 1.417432 8.222925 -0.439115 0.000000 0.000000 0.000000 0.000000 0.000000 0.000000 -0.477719 -0.564603 24.996074 1.639771 0.193372 0.187151 3.447813 -8.242211 -3.068812 0.000000 0.000000 0.000000 -0.013024 0.234858 25.163128 -0.000000 0.000000 0.000000 -0.000000 0.000000 0.000000 0.000000 0.000000 0.000000
64.486523 76.706873 286.369952 -0.142248 -0.263799 -24.686947 0.019070 0.299100 24.686570 -0.000000 0.000000 0.000000 1.738345 -1.346044 -0.135275 0.000000 0.000000 0.000000 -0.852235 -0.857581 -0.228460 2.626444 1.143399 0.403449 0.653237 4.828621 0.609342 -1.378525 -5.459503 -1.244146 0.000000 0.000000 0.000000 0.000000 0.000000 0.000000 0.385919 1.974817 0.281811 -0.129477 -0.312580 0.162865 2.153377 -7.880445 0.257962 1.665885 11.273659 -0.426629 0.000000 0.000000 0.000000 0.000000 0.000000 0.000000 -0.360639 -0.731525 24.516961 1.654673 0.457029 0.183645 3.659887 -8.703627 -3.199644 0.000000 0.000000 0.000000 0.019070 0.299100 24.686570 -0.000000 0.000000 0.000000 -0.000000 0.000000 0.000000 0.000000 0.000000 0.000000
64.505366 76.706182 286.342098 -0.186843 -0.270089 -24.721723 0.056766 0.323475 24.721122 -0.000000 0.000000 0.000000 2.141306 -1.190657 -0.355033 0.000000 0.000000 0.000000 -0.725971 -0.702343 -0.169890 2.247618 0.978736 0.333585 1.146214 3.924638 0.700640 -1.463434 -4.447915 -1.282885 0.000000 0.000000 0.000000 0.000000 0.000000 0.000000 0.369178 2.107817 0.302238 0.184181 -0.240895 0.234924 1.620164 -9.031849 0.189673 1.711101 13.166519 -0.408016 0.000000 0.000000 0.000000 0.000000 0.000000 0.000000 -0.223859 -0.854271 24.558372 1.545541 0.667495 0.171253 3.521776 -8.277405 -3.050587 0.000000 0.000000 0.000000 0.056766 0.323475 24.721122 -0.000000 0.000000 0.000000 -0.000000 0.000000 0.000000 0.000000 0.000000 0.000000
